<svg width="22" height="20" viewBox="0 0 22 20" fill="none" xmlns="http://www.w3.org/2000/svg">
<path fill-rule="evenodd" clip-rule="evenodd" d="M7.30769 1.03151e-08C7.11604 1.03151e-08 6.93666 0.0525672 6.7832 0.14407L0.516781 3.72488C0.197216 3.90749 0 4.24733 0 4.61538V18.9744C0 19.34 0.194624 19.6779 0.510844 19.8614C0.827065 20.045 1.21706 20.0463 1.5345 19.8649L7.33997 16.5475L14.01 19.8825C14.1431 19.9526 14.2936 19.9943 14.4532 19.9994C14.4645 19.9998 14.4759 20 14.4872 20C14.6789 20 14.8582 19.9474 15.0117 19.8559L21.2781 16.2751C21.5977 16.0925 21.7949 15.7527 21.7949 15.3846V1.02564C21.7949 0.66003 21.6002 0.322064 21.284 0.138554C20.9678 -0.0449559 20.5778 -0.0462584 20.2604 0.135135L14.4549 3.45255L7.78483 0.117507C7.64467 0.0437165 7.48535 0.00142174 7.31628 3.53325e-05L7.30769 1.03151e-08ZM15.5128 17.207L19.7436 14.7894V2.793L15.5128 5.21059V17.207ZM13.4615 5.24927L8.33333 2.68516V14.7507L13.4615 17.3148V5.24927ZM2.05128 5.21059L6.28205 2.793V14.7894L2.05128 17.207V5.21059Z" fill="#616161"/>
</svg>
