<svg width="10" height="15" viewBox="0 0 10 15" fill="none" xmlns="http://www.w3.org/2000/svg">
<path d="M5.25567 0.199685C5.12781 0.0718289 4.9544 0 4.77358 0C4.59277 0 4.41936 0.0718289 4.2915 0.199685C4.16365 0.327541 4.09182 0.500951 4.09182 0.681766V12.671L1.16568 9.74375C1.10235 9.68026 1.02711 9.62989 0.944283 9.59552C0.861455 9.56115 0.772661 9.54346 0.682985 9.54346C0.593309 9.54346 0.504514 9.56115 0.421686 9.59552C0.338858 9.62989 0.263624 9.68026 0.200294 9.74375C0.136804 9.80708 0.0864306 9.88232 0.0520608 9.96515C0.017691 10.048 0 10.1368 0 10.2264C0 10.3161 0.017691 10.4049 0.0520608 10.4877C0.0864306 10.5706 0.136804 10.6458 0.200294 10.7091L4.29089 14.7997C4.35422 14.8632 4.42946 14.9136 4.51228 14.948C4.59511 14.9823 4.68391 15 4.77358 15C4.86326 15 4.95205 14.9823 5.03488 14.948C5.11771 14.9136 5.19294 14.8632 5.25627 14.7997L9.34687 10.7091C9.47489 10.5811 9.54681 10.4075 9.54681 10.2264C9.54681 10.0454 9.47489 9.87177 9.34687 9.74375C9.21885 9.61574 9.04522 9.54382 8.86418 9.54382C8.68314 9.54382 8.50951 9.61574 8.38149 9.74375L5.45535 12.671V0.681766C5.45535 0.500951 5.38352 0.327541 5.25567 0.199685Z" fill="#616161"/>
</svg>
