<svg width="22" height="22" viewBox="0 0 22 22" fill="none" xmlns="http://www.w3.org/2000/svg">
<path fill-rule="evenodd" clip-rule="evenodd" d="M11 7.24706C8.92731 7.24706 7.24706 8.92731 7.24706 11C7.24706 13.0727 8.92731 14.7529 11 14.7529C13.0727 14.7529 14.7529 13.0727 14.7529 11C14.7529 8.92731 13.0727 7.24706 11 7.24706ZM9.31765 11C9.31765 10.0709 10.0709 9.31765 11 9.31765C11.9291 9.31765 12.6824 10.0709 12.6824 11C12.6824 11.9291 11.9291 12.6824 11 12.6824C10.0709 12.6824 9.31765 11.9291 9.31765 11Z" fill="#616161"/>
<path fill-rule="evenodd" clip-rule="evenodd" d="M18.6507 14.1357L17.7035 13.7176L18.6551 14.1255C18.6904 14.0431 18.749 13.9729 18.8237 13.9234C18.898 13.8742 18.985 13.8477 19.0741 13.8471H19.1529C19.908 13.8471 20.6322 13.5471 21.1661 13.0132C21.7 12.4792 22 11.7551 22 11C22 10.2449 21.7 9.52075 21.1661 8.98683C20.6322 8.4529 19.908 8.15294 19.1529 8.15294H19.0016C18.9125 8.1523 18.8255 8.12577 18.7512 8.07657C18.7076 8.04768 18.6695 8.0117 18.6383 7.97037C18.6238 7.90933 18.6037 7.84957 18.5782 7.79187C18.5411 7.70789 18.5301 7.61473 18.5465 7.52441C18.5626 7.43541 18.6046 7.35319 18.6673 7.28803L18.716 7.23929C18.9805 6.97497 19.1908 6.6607 19.334 6.31525C19.4773 5.96963 19.551 5.59915 19.551 5.225C19.551 4.85085 19.4773 4.48037 19.334 4.13475C19.1907 3.78912 18.9807 3.47512 18.716 3.21071C18.4518 2.94638 18.1381 2.73667 17.7928 2.59354C17.4472 2.45026 17.0767 2.37652 16.7025 2.37652C16.3284 2.37652 15.9579 2.45026 15.6123 2.59354C15.2666 2.73681 14.9527 2.94681 14.6882 3.21152L14.6395 3.26028C14.5743 3.3229 14.4921 3.36493 14.4031 3.38106C14.3128 3.39744 14.2196 3.38638 14.1357 3.34932L14.1255 3.34489C14.0431 3.3096 13.9729 3.25099 13.9234 3.17629C13.8742 3.10199 13.8477 3.01498 13.8471 2.92588V2.84706C13.8471 2.09197 13.5471 1.36781 13.0132 0.833884C12.4792 0.299957 11.7551 0 11 0C10.2449 0 9.52075 0.299957 8.98683 0.833884C8.4529 1.36781 8.15294 2.09197 8.15294 2.84706V2.99842C8.1523 3.0875 8.12577 3.17448 8.07657 3.24876C8.04768 3.29239 8.01171 3.33052 7.97038 3.36173C7.90933 3.37625 7.84958 3.39632 7.79187 3.42179C7.70789 3.45885 7.61473 3.46991 7.52441 3.45353C7.43542 3.4374 7.35321 3.39536 7.28804 3.33274L7.23929 3.28399C6.97496 3.01947 6.6607 2.80921 6.31525 2.66601C5.96963 2.52273 5.59915 2.44899 5.225 2.44899C4.85085 2.44899 4.48037 2.52273 4.13475 2.66601C3.7893 2.80921 3.47544 3.01907 3.21111 3.28358C2.9466 3.54791 2.73674 3.86177 2.59354 4.20722C2.45026 4.55284 2.37652 4.92332 2.37652 5.29747C2.37652 5.67162 2.45026 6.0421 2.59354 6.38772C2.73681 6.73335 2.94681 7.04735 3.21152 7.31176L3.26028 7.36052C3.3229 7.42569 3.36493 7.5079 3.38106 7.59688C3.39744 7.6872 3.38638 7.78036 3.34932 7.86434C3.34051 7.88429 3.33234 7.90452 3.32481 7.92499C3.29299 8.01151 3.23588 8.08645 3.1609 8.14008C3.08826 8.19203 3.00211 8.22165 2.91302 8.22541H2.84706C2.09197 8.22541 1.36781 8.52537 0.833884 9.0593C0.299957 9.59322 0 10.3174 0 11.0725C0 11.8276 0.299957 12.5517 0.833884 13.0856C1.36781 13.6196 2.09197 13.9195 2.84706 13.9195H2.99836C3.08745 13.9202 3.17446 13.9467 3.24876 13.9959C3.32346 14.0454 3.38207 14.1156 3.41736 14.198L3.42179 14.2081C3.45885 14.2921 3.46991 14.3853 3.45353 14.4756C3.4374 14.5646 3.39537 14.6468 3.33275 14.7119L3.28399 14.7607C3.01928 15.0251 2.80928 15.3391 2.66601 15.6847C2.52273 16.0304 2.44899 16.4009 2.44899 16.775C2.44899 17.1491 2.52273 17.5196 2.66601 17.8653C2.80914 18.2105 3.01885 18.5242 3.28318 18.7885C3.54759 19.0532 3.86159 19.2632 4.20722 19.4065C4.55284 19.5497 4.92332 19.6235 5.29747 19.6235C5.67162 19.6235 6.0421 19.5497 6.38772 19.4065C6.73318 19.2633 7.04703 19.0534 7.31137 18.7889L7.3605 18.7397C7.42567 18.6771 7.50789 18.6351 7.59688 18.6189C7.6872 18.6026 7.78036 18.6136 7.86434 18.6507C7.88429 18.6595 7.90452 18.6677 7.92499 18.6752C8.01151 18.707 8.08645 18.7641 8.14008 18.8391C8.19203 18.9117 8.22165 18.9979 8.22541 19.087V19.1529C8.22541 19.908 8.52537 20.6322 9.0593 21.1661C9.59322 21.7 10.3174 22 11.0725 22C11.8276 22 12.5517 21.7 13.0856 21.1661C13.6196 20.6322 13.9195 19.908 13.9195 19.1529V19.0016C13.9202 18.9125 13.9467 18.8255 13.9959 18.7512C14.0454 18.6765 14.1156 18.6179 14.198 18.5826L14.2081 18.5782C14.2921 18.5411 14.3853 18.5301 14.4756 18.5465C14.5646 18.5626 14.6468 18.6046 14.712 18.6673L14.7607 18.716C15.0251 18.9807 15.3391 19.1907 15.6847 19.334C16.0304 19.4773 16.4009 19.551 16.775 19.551C17.1491 19.551 17.5196 19.4773 17.8653 19.334C18.2107 19.1908 18.5246 18.9809 18.7889 18.7164C19.0534 18.4521 19.2633 18.1382 19.4065 17.7928C19.5497 17.4472 19.6235 17.0767 19.6235 16.7025C19.6235 16.3284 19.5497 15.9579 19.4065 15.6123C19.2632 15.2667 19.0532 14.9527 18.7885 14.6882L18.7398 14.6395C18.6771 14.5743 18.6351 14.4921 18.6189 14.4031C18.6026 14.3128 18.6136 14.2196 18.6507 14.1357ZM10.451 2.29801C10.5966 2.15239 10.7941 2.07059 11 2.07059C11.2059 2.07059 11.4034 2.15239 11.549 2.29801C11.6947 2.44363 11.7765 2.64113 11.7765 2.84706V2.92859L11.7765 2.93272C11.7784 3.42612 11.9246 3.90819 12.1971 4.31956C12.4685 4.72939 12.8534 5.05125 13.3047 5.24585C13.7658 5.44817 14.2769 5.50829 14.7725 5.41843C15.2699 5.32824 15.7289 5.09111 16.0903 4.73762L16.0984 4.72959L16.1528 4.67524C16.2249 4.60304 16.3109 4.54537 16.4052 4.50629C16.4995 4.46722 16.6005 4.4471 16.7025 4.4471C16.8046 4.4471 16.9056 4.46722 16.9999 4.50629C17.0941 4.54537 17.1798 4.60264 17.2519 4.67483L17.2527 4.67565C17.3249 4.74776 17.3822 4.8334 17.4212 4.92766C17.4603 5.02192 17.4804 5.12296 17.4804 5.225C17.4804 5.32704 17.4603 5.42808 17.4212 5.52234C17.3822 5.6166 17.3249 5.70224 17.2527 5.77435L17.1979 5.82912L17.1899 5.83723C16.8364 6.19861 16.5993 6.65759 16.5091 7.155C16.4316 7.5825 16.4657 8.02154 16.6064 8.43011C16.6192 8.51941 16.6438 8.60687 16.6795 8.69019C16.8738 9.1437 17.1966 9.53048 17.608 9.80292C18.0193 10.0754 18.5014 10.2216 18.9948 10.2235L18.9989 10.2235H19.1529C19.3589 10.2235 19.5564 10.3053 19.702 10.451C19.8476 10.5966 19.9294 10.7941 19.9294 11C19.9294 11.2059 19.8476 11.4034 19.702 11.549C19.5564 11.6947 19.3589 11.7765 19.1529 11.7765L19.0714 11.7765L19.0673 11.7765C18.5739 11.7784 18.0918 11.9246 17.6804 12.1971C17.2706 12.4685 16.9488 12.8534 16.7542 13.3047C16.5518 13.7658 16.4917 14.2769 16.5816 14.7725C16.6718 15.2699 16.9089 15.7289 17.2624 16.0903L17.2704 16.0984L17.3248 16.1528C17.397 16.2249 17.4546 16.3109 17.4937 16.4052C17.5328 16.4995 17.5529 16.6005 17.5529 16.7025C17.5529 16.8046 17.5328 16.9056 17.4937 16.9999C17.4546 17.0941 17.3974 17.1798 17.3252 17.2519L17.3244 17.2527C17.2522 17.3249 17.1666 17.3822 17.0723 17.4212C16.9781 17.4603 16.877 17.4804 16.775 17.4804C16.673 17.4804 16.5719 17.4603 16.4777 17.4212C16.3834 17.3822 16.2978 17.3249 16.2256 17.2527L16.1709 17.1979L16.1628 17.1899C15.8014 16.8364 15.3424 16.5993 14.845 16.5091C14.3494 16.4192 13.8384 16.4793 13.3772 16.6817C12.9259 16.8763 12.541 17.1981 12.2696 17.608C11.9971 18.0193 11.8509 18.5014 11.8489 18.9948L11.8489 18.9989V19.1529C11.8489 19.3589 11.7671 19.5564 11.6215 19.702C11.4759 19.8476 11.2784 19.9294 11.0725 19.9294C10.8665 19.9294 10.669 19.8476 10.5234 19.702C10.3778 19.5564 10.296 19.3589 10.296 19.1529V19.0714L10.2957 19.0472C10.2838 18.5397 10.1196 18.0475 9.82423 17.6345C9.53525 17.2305 9.13387 16.9207 8.67036 16.7434C8.21576 16.5497 7.71414 16.4933 7.22747 16.5816C6.73006 16.6718 6.27108 16.9089 5.9097 17.2624L5.90157 17.2704L5.84722 17.3248C5.77511 17.397 5.68908 17.4546 5.59481 17.4937C5.50055 17.5328 5.39951 17.5529 5.29747 17.5529C5.19543 17.5529 5.09439 17.5328 5.00013 17.4937C4.90586 17.4546 4.82023 17.3974 4.74812 17.3252L4.7473 17.3244C4.67511 17.2522 4.61784 17.1666 4.57876 17.0723C4.53969 16.9781 4.51957 16.877 4.51957 16.775C4.51957 16.673 4.53969 16.5719 4.57876 16.4777C4.61784 16.3834 4.67511 16.2978 4.7473 16.2256L4.80206 16.1709L4.81009 16.1628C5.16358 15.8014 5.40071 15.3424 5.4909 14.845C5.58076 14.3494 5.52065 13.8384 5.31834 13.3772C5.12374 12.9259 4.80188 12.541 4.39204 12.2696C3.98066 11.9971 3.49859 11.8509 3.00519 11.8489L3.00106 11.8489H2.84706C2.64113 11.8489 2.44363 11.7671 2.29801 11.6215C2.15239 11.4759 2.07059 11.2784 2.07059 11.0725C2.07059 10.8665 2.15239 10.669 2.29801 10.5234C2.44363 10.3778 2.64113 10.296 2.84706 10.296H2.92859L2.9528 10.2957C3.46032 10.2838 3.95254 10.1196 4.36546 9.82423C4.7695 9.53525 5.07932 9.13387 5.25664 8.67036C5.45029 8.21576 5.50667 7.71414 5.41843 7.22747C5.32824 6.73006 5.09111 6.27108 4.73762 5.9097L4.72959 5.90158L4.67524 5.84723C4.60305 5.77512 4.54537 5.68907 4.50629 5.59481C4.46722 5.50055 4.4471 5.39951 4.4471 5.29747C4.4471 5.19543 4.46722 5.09439 4.50629 5.00013C4.54537 4.90587 4.60264 4.82023 4.67483 4.74812L4.67565 4.7473C4.74776 4.67511 4.8334 4.61784 4.92766 4.57876C5.02192 4.53969 5.12296 4.51957 5.225 4.51957C5.32704 4.51957 5.42808 4.53969 5.52234 4.57876C5.6166 4.61784 5.70224 4.67511 5.77435 4.7473L5.82911 4.80206L5.83723 4.81009C6.19861 5.16358 6.65759 5.40071 7.155 5.4909C7.5825 5.56841 8.02154 5.53433 8.43011 5.39364C8.51941 5.38076 8.60687 5.35623 8.69019 5.32052C9.1437 5.12615 9.53048 4.80341 9.80292 4.39204C10.0754 3.98066 10.2216 3.49859 10.2235 3.00519L10.2235 3.00106V2.84706C10.2235 2.64113 10.3053 2.44363 10.451 2.29801Z" fill="#616161"/>
</svg>
