<svg width="22" height="20" viewBox="0 0 22 20" fill="none" xmlns="http://www.w3.org/2000/svg">
<path d="M10.2701 0.0343908C10.1489 0.0845403 10.3689 -0.0637807 10.2701 0.0343908V0.0343908Z" fill="#616161"/>
<path d="M11.7693 0.0343908C11.5821 -0.151672 12.6911 3.26807 11.5176 4.65099C8.33115 3.26807 10.3922 -0.016228 10.2701 0.0343908" fill="#616161"/>
<path d="M11.7693 0.0343908L11.7326 0.037132L11.7693 0.0343908Z" fill="#616161"/>
<path d="M12.0353 3.26807L13.8915 5.12424C14.2958 5.52855 14.9513 5.52855 15.3556 5.12424C15.7599 4.71993 15.7599 4.06442 15.3556 3.66011L11.7326 0.037132" fill="#616161"/>
<path d="M9.96471 3.26807V7.10982C9.96471 7.6816 10.4282 8.14512 11 8.14512C11.5718 8.14512 12.0353 7.6816 12.0353 7.10982V3.26807" fill="#616161"/>
<path d="M9.96471 3.26807L8.10853 5.12424C7.70423 5.52855 7.04871 5.52855 6.64441 5.12424C6.2401 4.71993 6.2401 4.06442 6.64441 3.66011L10.2701 0.0343908" fill="#616161"/>
<path d="M11 9.69806C9.52415 9.69806 8.10874 10.2843 7.06516 11.3279C6.02157 12.3715 5.43529 13.7869 5.43529 15.2628C5.43529 15.8345 5.89881 16.2981 6.47059 16.2981C7.04237 16.2981 7.50588 15.8345 7.50588 15.2628C7.50588 14.3361 7.87401 13.4473 8.52929 12.7921C9.18456 12.1368 10.0733 11.7686 11 11.7686C11.9267 11.7686 12.8154 12.1368 13.4707 12.7921C14.126 13.4473 14.4941 14.3361 14.4941 15.2628C14.4941 15.8345 14.9576 16.2981 15.5294 16.2981C16.1012 16.2981 16.5647 15.8345 16.5647 15.2628C16.5647 13.7869 15.9784 12.3715 14.9348 11.3279C13.8913 10.2843 12.4759 9.69806 11 9.69806Z" fill="#616161"/>
<path d="M3.22017 7.48294C3.62448 7.07863 4.27999 7.07863 4.6843 7.48294L5.97065 8.76929C6.37496 9.1736 6.37496 9.82911 5.97065 10.2334C5.56634 10.6377 4.91083 10.6377 4.50652 10.2334L3.22017 8.94707C2.81586 8.54276 2.81586 7.88725 3.22017 7.48294Z" fill="#616161"/>
<path d="M1.03529 14.2275C0.463517 14.2275 0 14.691 0 15.2628C0 15.8345 0.463517 16.2981 1.03529 16.2981H2.84706C3.41884 16.2981 3.88235 15.8345 3.88235 15.2628C3.88235 14.691 3.41884 14.2275 2.84706 14.2275H1.03529Z" fill="#616161"/>
<path d="M18.1176 15.2628C18.1176 14.691 18.5812 14.2275 19.1529 14.2275H20.9647C21.5365 14.2275 22 14.691 22 15.2628C22 15.8345 21.5365 16.2981 20.9647 16.2981H19.1529C18.5812 16.2981 18.1176 15.8345 18.1176 15.2628Z" fill="#616161"/>
<path d="M18.7798 8.94707C19.1841 8.54276 19.1841 7.88725 18.7798 7.48294C18.3755 7.07863 17.72 7.07863 17.3157 7.48294L16.0293 8.76929C15.625 9.1736 15.625 9.82911 16.0293 10.2334C16.4337 10.6377 17.0892 10.6377 17.4935 10.2334L18.7798 8.94707Z" fill="#616161"/>
<path d="M0 18.8863C0 18.3145 0.463517 17.851 1.03529 17.851H20.9647C21.5365 17.851 22 18.3145 22 18.8863C22 19.4581 21.5365 19.9216 20.9647 19.9216H1.03529C0.463517 19.9216 0 19.4581 0 18.8863Z" fill="#616161"/>
</svg>
