<svg width="22" height="20" viewBox="0 0 22 20" fill="none" xmlns="http://www.w3.org/2000/svg">
<path d="M11.9231 1.02564C11.9231 0.459195 11.4639 0 10.8974 0C10.331 0 9.87179 0.459195 9.87179 1.02564V4.83158L8.03293 2.99271C7.63239 2.59217 6.98299 2.59217 6.58245 2.99271C6.18192 3.39325 6.18192 4.04265 6.58245 4.44319L9.87179 7.94872" fill="#616161"/>
<path d="M11.6233 8.03228L15.2124 4.44319C15.613 4.04265 15.613 3.39325 15.2124 2.99271C14.8119 2.59217 14.1625 2.59217 13.7619 2.99271L11.9231 4.83158V1.02564" fill="#616161"/>
<path d="M10.8974 9.87179C9.43534 9.87179 8.03314 10.4526 6.99928 11.4865C5.96543 12.5203 5.38462 13.9225 5.38462 15.3846C5.38462 15.9511 5.84381 16.4103 6.41026 16.4103C6.9767 16.4103 7.4359 15.9511 7.4359 15.3846C7.4359 14.4666 7.80059 13.5861 8.44976 12.9369C9.09892 12.2878 9.97938 11.9231 10.8974 11.9231C11.8155 11.9231 12.6959 12.2878 13.3451 12.9369C13.9943 13.5861 14.359 14.4666 14.359 15.3846C14.359 15.9511 14.8182 16.4103 15.3846 16.4103C15.9511 16.4103 16.4103 15.9511 16.4103 15.3846C16.4103 13.9225 15.8294 12.5203 14.7956 11.4865C13.7617 10.4526 12.3595 9.87179 10.8974 9.87179Z" fill="#616161"/>
<path d="M3.19015 7.67733C3.59068 7.27679 4.24008 7.27679 4.64062 7.67733L5.91498 8.95169C6.31552 9.35223 6.31552 10.0016 5.91498 10.4022C5.51444 10.8027 4.86504 10.8027 4.46451 10.4022L3.19015 9.12781C2.78961 8.72727 2.78961 8.07787 3.19015 7.67733Z" fill="#616161"/>
<path d="M1.02564 14.359C0.459195 14.359 0 14.8182 0 15.3846C0 15.9511 0.459195 16.4103 1.02564 16.4103H2.82051C3.38696 16.4103 3.84615 15.9511 3.84615 15.3846C3.84615 14.8182 3.38696 14.359 2.82051 14.359H1.02564Z" fill="#616161"/>
<path d="M17.9487 15.3846C17.9487 14.8182 18.4079 14.359 18.9744 14.359H20.7692C21.3357 14.359 21.7949 14.8182 21.7949 15.3846C21.7949 15.9511 21.3357 16.4103 20.7692 16.4103H18.9744C18.4079 16.4103 17.9487 15.9511 17.9487 15.3846Z" fill="#616161"/>
<path d="M18.6047 9.12781C19.0053 8.72727 19.0053 8.07787 18.6047 7.67733C18.2042 7.27679 17.5548 7.27679 17.1542 7.67733L15.8799 8.95169C15.4794 9.35223 15.4794 10.0016 15.8799 10.4022C16.2804 10.8027 16.9298 10.8027 17.3304 10.4022L18.6047 9.12781Z" fill="#616161"/>
<path d="M0 18.9744C0 18.4079 0.459195 17.9487 1.02564 17.9487H20.7692C21.3357 17.9487 21.7949 18.4079 21.7949 18.9744C21.7949 19.5408 21.3357 20 20.7692 20H1.02564C0.459195 20 0 19.5408 0 18.9744Z" fill="#616161"/>
<path d="M11.7224 5.71727C11.7224 2.64035 11.9231 1.28205 11.9231 1.02564C11.5225 0.625103 11.298 3.95844 10.8974 4.35897L10.1716 6.83822C9.77101 7.23876 9.47126 7.54818 9.87179 7.94872C10.5977 8.12156 10.8987 8.20513 11.6233 8.03228L11.7224 5.71727Z" fill="#616161"/>
</svg>
