<svg width="128" height="128" viewBox="0 0 128 128" fill="none" xmlns="http://www.w3.org/2000/svg">
<path d="M65.3197 3.27229C58.2451 0.51438 50.6163 -0.522706 43.0621 0.24651C35.508 1.01573 28.2448 3.56922 21.8713 7.69651C15.4977 11.8238 10.1963 17.4067 6.40398 23.9851C2.61166 30.5635 0.437025 37.9489 0.0593219 45.5327C-0.318381 53.1165 1.11166 60.6815 4.23158 67.6041C7.3515 74.5268 12.072 80.6088 18.0039 85.349C20.1724 87.0819 23.3352 86.7287 25.068 84.5601C26.8009 82.3916 26.4477 79.2288 24.2792 77.4959C19.5917 73.7502 15.8616 68.9441 13.3962 63.4738C10.9308 58.0035 9.80076 52.0256 10.0992 46.0328C10.3977 40.04 12.1161 34.2039 15.1128 29.0056C18.1096 23.8073 22.2988 19.3956 27.3352 16.1342C32.3717 12.8728 38.1111 10.855 44.0805 10.2471C50.0498 9.6393 56.0782 10.4588 61.6686 12.6381C67.2591 14.8175 72.2516 18.2942 76.2346 22.7818C80.2176 27.2693 83.0771 32.6392 84.5773 38.4489C85.1504 40.6679 87.152 42.2183 89.4439 42.2183L96.1931 42.2183L96.1962 42.2183C101.194 42.2249 106.038 43.9503 109.915 47.105C113.792 50.2604 116.466 54.6537 117.488 59.5474C118.51 64.441 117.817 69.5372 115.525 73.9804C113.234 78.4236 109.484 81.9434 104.905 83.949C102.362 85.0626 101.204 88.0266 102.318 90.5693C103.431 93.112 106.395 94.2705 108.938 93.1569C115.631 90.2257 121.111 85.0814 124.46 78.5875C127.809 72.0935 128.821 64.6453 127.328 57.493C125.835 50.3408 121.927 43.9199 116.26 39.3081C110.593 34.6964 103.511 32.1746 96.205 32.166H93.1698C91.1148 26.2615 87.9196 20.8036 83.7527 16.1089C78.7123 10.4299 72.3944 6.03019 65.3197 3.27229Z" fill="black"/>
<path d="M42.5865 64.3335C45.3624 64.3335 47.6127 66.5838 47.6127 69.3597V80.0822C47.6127 82.8581 45.3624 85.1084 42.5865 85.1084C39.8106 85.1084 37.5603 82.8581 37.5603 80.0822V69.3597C37.5603 66.5838 39.8106 64.3335 42.5865 64.3335Z" fill="black"/>
<path d="M42.5865 96.501C45.3624 96.501 47.6127 98.7513 47.6127 101.527V112.25C47.6127 115.026 45.3624 117.276 42.5865 117.276C39.8106 117.276 37.5603 115.026 37.5603 112.25V101.527C37.5603 98.7513 39.8106 96.501 42.5865 96.501Z" fill="black"/>
<path d="M90.5027 101.527C90.5027 98.7513 88.2524 96.501 85.4765 96.501C82.7006 96.501 80.4504 98.7513 80.4504 101.527V112.25C80.4504 115.026 82.7006 117.276 85.4765 117.276C88.2524 117.276 90.5027 115.026 90.5027 112.25V101.527Z" fill="black"/>
<path d="M85.4765 64.3335C88.2524 64.3335 90.5027 66.5838 90.5027 69.3597V80.0822C90.5027 82.8581 88.2524 85.1084 85.4765 85.1084C82.7006 85.1084 80.4504 82.8581 80.4504 80.0822V69.3597C80.4504 66.5838 82.7006 64.3335 85.4765 64.3335Z" fill="black"/>
<path d="M69.0577 112.25C69.0577 109.474 66.8074 107.224 64.0315 107.224C61.2556 107.224 59.0053 109.474 59.0053 112.25V122.972C59.0053 125.748 61.2556 127.998 64.0315 127.998C66.8074 127.998 69.0577 125.748 69.0577 122.972V112.25Z" fill="black"/>
<path d="M64.0315 75.056C66.8074 75.056 69.0577 77.3063 69.0577 80.0822V90.8047C69.0577 93.5806 66.8074 95.8309 64.0315 95.8309C61.2556 95.8309 59.0053 93.5806 59.0053 90.8047V80.0822C59.0053 77.3063 61.2556 75.056 64.0315 75.056Z" fill="black"/>
</svg>
