<svg width="10" height="15" viewBox="0 0 10 15" fill="none" xmlns="http://www.w3.org/2000/svg">
<path d="M9.12504 5.40446C9.20787 5.37009 9.2831 5.31972 9.34643 5.25623C9.40992 5.1929 9.4603 5.11767 9.49467 5.03484C9.52903 4.95201 9.54673 4.86322 9.54673 4.77354C9.54673 4.68387 9.52903 4.59507 9.49467 4.51225C9.4603 4.42942 9.40992 4.35419 9.34643 4.29086L5.25587 0.200292C5.19254 0.136802 5.11731 0.0864303 5.03448 0.0520608C4.95165 0.0176913 4.86286 0 4.77318 0C4.68351 0 4.59472 0.0176913 4.51189 0.0520608C4.42906 0.0864303 4.35383 0.136802 4.2905 0.200292L0.199934 4.29086C0.0719178 4.41887 0 4.5925 0 4.77354C0 4.95459 0.0719178 5.12821 0.199934 5.25623C0.327951 5.38425 0.501579 5.45616 0.682621 5.45616C0.863663 5.45616 1.03729 5.38425 1.16531 5.25623L4.09142 2.32901V14.3182C4.09142 14.499 4.16325 14.6724 4.29111 14.8003C4.41896 14.9281 4.59237 15 4.77318 15C4.954 15 5.12741 14.9281 5.25526 14.8003C5.38312 14.6724 5.45494 14.499 5.45494 14.3182V2.32901L8.38106 5.25623C8.44439 5.31972 8.51962 5.37009 8.60245 5.40446C8.68528 5.43883 8.77407 5.45652 8.86375 5.45652C8.95342 5.45652 9.04222 5.43883 9.12504 5.40446Z" fill="#616161"/>
</svg>
