<svg width="15" height="15" viewBox="0 0 15 15" fill="none" xmlns="http://www.w3.org/2000/svg">
<path d="M8.55263 1.05263C8.55263 0.471279 8.08135 0 7.5 0C6.91865 0 6.44737 0.471279 6.44737 1.05263V6.44737H1.05263C0.471279 6.44737 0 6.91865 0 7.5C0 8.08135 0.471279 8.55263 1.05263 8.55263H6.44737V13.9474C6.44737 14.5287 6.91865 15 7.5 15C8.08135 15 8.55263 14.5287 8.55263 13.9474V8.55263H13.9474C14.5287 8.55263 15 8.08135 15 7.5C15 6.91865 14.5287 6.44737 13.9474 6.44737H8.55263V1.05263Z" fill="#616161"/>
</svg>
